<?xml version="1.0" encoding="UTF-8"?>
<svg id="Layer_1" xmlns="http://www.w3.org/2000/svg" version="1.1" viewBox="0 0 600 600">
  <!-- Generator: Adobe Illustrator 30.1.0, SVG Export Plug-In . SVG Version: 2.1.1 Build 136)  -->
  <defs>
    <style>
      .st0 {
        fill: #fff;
      }

      .st1 {
        fill: #353843;
      }
    </style>
  </defs>
  <g id="bg">
    <rect class="st1" x="-1.9" y="-1.9" width="603.6" height="601.7"/>
  </g>
  <g id="art_140">
    <path class="st0" d="M161.9,262.8h49.9L146.3,54.2h-56.4L24.4,262.8h48.2l12.9-49.7h63.6l12.8,49.7ZM95,176.5l5-19.3c5.8-20.9,11.4-45.2,16.4-67.3h1.3c5.6,21.8,11.1,46.4,16.9,67.3l5,19.3h-44.6Z"/>
    <path class="st0" d="M397.6,262.8l-47.2-83.4c22.3-10.1,37.1-29.5,37.1-60.2,0-49.6-36.3-64.9-80.5-64.9h-75.1v208.6h47.1v-75.1h25.9l39.8,75.1h52.8ZM279,91.7h24.1c24.8,0,38.1,6.9,38.1,27.5s-13.3,31.1-38.1,31.1h-24.1v-58.6Z"/>
    <path class="st0" d="M463.1,93.8h-57.4v-39.5h162v39.5h-57.4v169h-47.1V93.8h0Z"/>
    <path class="st0" d="M29.8,504.8h44.4v-117.6h-38.1v-29.2c21.8-4.1,36.2-9.7,50.4-18.5h34.7v165.3h38.1v38H29.8v-38h0Z"/>
    <path class="st0" d="M557.9,458.5h-23.5v-118.9h-57.5l-74.2,122.2v32.5h87.9v48.5h43.9v-48.5h23.5v-35.9h0ZM447.8,458.5l26.7-44.4c5.8-11.6,11.5-22.9,16.6-34.3h1.3c-.6,12.9-1.8,32.6-1.8,45.5v33.2h-42.8,0Z"/>
    <path class="st0" d="M222.7,504.8h44.4v-117.6h-38.1v-29.2c21.8-4.1,36.2-9.7,50.4-18.5h34.7v165.3h38.1v38h-129.5v-38h0Z"/>
  </g>
</svg>